# xmcd
#
# Track frame offsets:
# 150
# 16299
# 31498
# 53084
# 65031
# 89740
# 105001
# 121433
# 139657
# 154643
# 173220
# 188296
# 203878
#
# Disc length: 3098 seconds
#
#
# Revision: 0
# Processed by: cddbd v1.5.1PL2 Copyright (c) Steve Scherf et al.
# Submitted via: FreeRIP 2.942 
#
DISCID=a60c180d
DTITLE=Linda Ronstadt and Emmylou Harris - Western Wall - The Tucson Sessions
DYEAR=1999
DGENRE=Country
TTITLE0=Loving The Highway Man
TTITLE1=Raise The Dead
TTITLE2=For A Dancer
TTITLE3=Western Wall
TTITLE4=1917
TTITLE5=He Was Mine
TTITLE6=Sweet Spot
TTITLE7=Sisters Of Mercy
TTITLE8=Falling Down
TTITLE9=Valerie
TTITLE10=This Is To Mother You
TTITLE11=All I Left Behind
TTITLE12=Across The Border
EXTD=Label: Asylum Records
EXTT0=
EXTT1=
EXTT2=
EXTT3=
EXTT4=
EXTT5=
EXTT6=
EXTT7=
EXTT8=
EXTT9=
EXTT10=
EXTT11=
EXTT12=
PLAYORDER=
